<?xml version="1.0" encoding="UTF-8" standalone="no"?>
<!DOCTYPE svg PUBLIC "-//W3C//DTD SVG 1.1//EN" "http://www.w3.org/Graphics/SVG/1.1/DTD/svg11.dtd">
<svg width="100%" height="100%" viewBox="0 0 500 505" version="1.1" xmlns="http://www.w3.org/2000/svg" xmlns:xlink="http://www.w3.org/1999/xlink" xml:space="preserve" xmlns:serif="http://www.serif.com/" style="fill-rule:evenodd;clip-rule:evenodd;stroke-linejoin:round;stroke-miterlimit:1.41421;">
    <g id="Artboard1" transform="matrix(2.62858,0,0,2.62858,0,0)">
        <rect x="0" y="0" width="190.216" height="192" style="fill:none;"/>
        <g transform="matrix(1,0,0,1,1.60524,-4.22844)">
            <g transform="matrix(0.69286,0.791389,-0.35155,0.92044,92.1858,-15.9657)">
                <path d="M43.325,28.691C43.325,20.583 37.875,14 31.162,14C24.45,14 19,20.583 19,28.691L19,110.309C19,118.417 24.45,125 31.162,125C37.875,125 43.325,118.417 43.325,110.309L43.325,28.691Z" style="fill:black;"/>
            </g>
            <g transform="matrix(0.69286,0.791389,-0.35155,0.92044,122.852,-15.9657)">
                <path d="M43.325,28.691C43.325,20.583 37.875,14 31.162,14C24.45,14 19,20.583 19,28.691L19,110.309C19,118.417 24.45,125 31.162,125C37.875,125 43.325,118.417 43.325,110.309L43.325,28.691Z" style="fill:black;"/>
            </g>
            <g transform="matrix(0.69286,0.791389,-0.541224,1.41705,63.5079,-22.9182)">
                <path d="M43.325,23.542C43.325,18.276 37.875,14 31.162,14C24.45,14 19,18.276 19,23.542L19,115.458C19,120.724 24.45,125 31.162,125C37.875,125 43.325,120.724 43.325,115.458L43.325,23.542Z" style="fill:black;"/>
            </g>
            <g transform="matrix(-0.69286,0.791389,0.318281,0.833333,151.366,50.0465)">
                <path d="M43.325,30.226C43.325,21.271 37.875,14 31.162,14C24.45,14 19,21.271 19,30.226L19,108.774C19,117.729 24.45,125 31.162,125C37.875,125 43.325,117.729 43.325,108.774L43.325,30.226Z" style="fill:black;"/>
            </g>
        </g>
    </g>
</svg>
