<?xml version="1.0" encoding="UTF-8" standalone="no"?>
<!DOCTYPE svg PUBLIC "-//W3C//DTD SVG 1.1//EN" "http://www.w3.org/Graphics/SVG/1.1/DTD/svg11.dtd">
<svg width="100%" height="100%" viewBox="0 0 152 152" version="1.1" xmlns="http://www.w3.org/2000/svg" xmlns:xlink="http://www.w3.org/1999/xlink" xml:space="preserve" xmlns:serif="http://www.serif.com/" style="fill-rule:evenodd;clip-rule:evenodd;stroke-linejoin:round;stroke-miterlimit:1.41421;">
    <g transform="matrix(1,0,0,1,-0.000433589,0)">
        <path d="M59.25,56.831C58.169,56.762 57.147,56.333 56.376,55.618C55.532,54.835 55.058,53.772 55.058,52.665C55.058,51.822 55.058,47.648 55.058,46.663C55.058,42.488 55.682,40.816 58.862,38.771C59.923,38.089 61.358,37.304 62.729,36.623C64.084,35.957 64.942,34.579 64.942,33.069C64.948,28.076 64.948,17.42 64.948,17.42C64.948,14.698 66.112,12.089 68.185,10.165C70.258,8.24 73.069,7.159 76,7.159C78.932,7.159 81.743,8.24 83.816,10.165C85.889,12.089 87.053,14.698 87.053,17.42C87.053,17.42 87.053,28.076 87.053,33.069C87.053,34.581 87.913,35.961 89.27,36.628C90.643,37.304 92.078,38.089 93.139,38.771C96.319,40.816 96.943,42.488 96.943,46.663C96.943,47.648 96.943,51.822 96.943,52.665C96.943,53.772 96.469,54.835 95.625,55.618C94.852,56.336 93.825,56.765 92.74,56.832C92.741,57.773 92.744,58.715 92.751,59.657C92.844,64.107 97.931,66.353 100.752,70.204C103.27,73.642 104.673,77.862 104.748,82.138C104.935,99.907 104.864,117.679 104.749,135.449C104.662,140.053 100.684,144.159 95.949,144.249C82.65,144.333 69.35,144.333 56.051,144.249C51.471,144.162 47.342,140.258 47.251,135.449C47.138,117.679 47.066,99.907 47.252,82.138C47.355,76.224 50.071,70.483 54.554,66.653C56.884,64.691 59.229,62.599 59.25,59.554L59.25,56.831ZM100.294,128L51.644,128C51.669,130.483 51.704,132.967 51.752,135.45C51.823,137.719 53.821,139.706 56.108,139.75C69.388,139.834 82.671,140.001 95.95,139.748C98.219,139.677 100.206,137.679 100.25,135.392C100.265,132.928 100.28,130.464 100.294,128ZM75.5,88C75.5,88 63.5,102.7 63.5,109C63.5,115.623 68.877,121 75.5,121C82.123,121 87.5,115.623 87.5,109C87.5,102.7 75.5,88 75.5,88ZM76,56.841L63.961,56.841C63.986,58.476 63.896,60.173 63.473,62.051C62.479,66.461 57.896,69.012 55.214,72.421C53.013,75.219 51.788,78.752 51.75,82.314L51.748,83L100.256,83L100.248,82.201C100.167,77.556 98.008,73.01 94.448,70.012C91.109,67.24 88.28,63.896 88.25,59.569L88.25,56.841L76,56.841Z" style="fill:black;fill-rule:nonzero;"/>
    </g>
</svg>
